<svg id="visual" viewBox="0 0 960 540" width="960" height="540" xmlns="http://www.w3.org/2000/svg" xmlns:xlink="http://www.w3.org/1999/xlink" version="1.1"><path d="M0 104L17.8 99C35.7 94 71.3 84 106.8 89.2C142.3 94.3 177.7 114.7 213.2 117.8C248.7 121 284.3 107 320 108.2C355.7 109.3 391.3 125.7 426.8 124C462.3 122.3 497.7 102.7 533.2 101.7C568.7 100.7 604.3 118.3 640 123C675.7 127.7 711.3 119.3 746.8 105.7C782.3 92 817.7 73 853.2 68.8C888.7 64.7 924.3 75.3 942.2 80.7L960 86L960 0L942.2 0C924.3 0 888.7 0 853.2 0C817.7 0 782.3 0 746.8 0C711.3 0 675.7 0 640 0C604.3 0 568.7 0 533.2 0C497.7 0 462.3 0 426.8 0C391.3 0 355.7 0 320 0C284.3 0 248.7 0 213.2 0C177.7 0 142.3 0 106.8 0C71.3 0 35.7 0 17.8 0L0 0Z" fill="#0066FF" stroke-linecap="round" stroke-linejoin="miter"></path></svg>